<svg xmlns="http://www.w3.org/2000/svg" viewBox="0 0 1254 1254" role="img" aria-labelledby="title desc">
<title id="title">bootty app icon</title><desc id="desc">Pink terminal mascot app icon.</desc>
<defs>
<radialGradient id="bgGradient" cx="627" cy="490" r="820" gradientUnits="userSpaceOnUse"><stop offset="0" stop-color="#1f2025"/><stop offset="0.55" stop-color="#111216"/><stop offset="1" stop-color="#050507"/></radialGradient>
<linearGradient id="pinkGradient" x1="300" y1="190" x2="900" y2="1040" gradientUnits="userSpaceOnUse"><stop offset="0" stop-color="#ff56bf"/><stop offset="0.45" stop-color="#ff2e9a"/><stop offset="1" stop-color="#ee126f"/></linearGradient>
<linearGradient id="faceGradient" x1="506" y1="548" x2="1071" y2="871" gradientUnits="userSpaceOnUse"><stop offset="0" stop-color="#090a0d"/><stop offset="0.65" stop-color="#030305"/><stop offset="1" stop-color="#000"/></linearGradient>
<filter id="pinkShadow" x="-15%" y="-15%" width="130%" height="130%" color-interpolation-filters="sRGB"><feDropShadow dx="0" dy="10" stdDeviation="12" flood-color="#000" flood-opacity="0.45"/><feDropShadow dx="0" dy="0" stdDeviation="3" flood-color="#ff2ea4" flood-opacity="0.18"/></filter>
<filter id="glyphShadow" x="-20%" y="-20%" width="140%" height="140%" color-interpolation-filters="sRGB"><feDropShadow dx="0" dy="5" stdDeviation="4" flood-color="#000" flood-opacity="0.35"/></filter>
</defs>
<rect x="17" y="17" width="1220" height="1220" rx="232" fill="url(#bgGradient)"/>
<rect x="18.5" y="18.5" width="1217" height="1217" rx="230" fill="none" stroke="#2b2c31" stroke-width="3" opacity="0.62"/>
<g id="bootty-body" filter="url(#pinkShadow)">
    <path d="M 555.5 192.3 L 538.0 193.2 L 520.6 194.6 L 503.5 196.6 L 486.7 199.3 L 470.3 202.6 L 454.2 206.2 L 438.0 209.7 L 421.6 212.6 L 404.7 214.7 L 386.6 216.1 L 373.3 223.8 L 374.9 239.0 L 388.7 243.5 L 406.7 241.0 L 423.5 237.4 L 439.8 235.1 L 456.7 235.3 L 473.7 238.0 L 490.0 242.9 L 505.1 249.5 L 518.9 257.7 L 532.4 267.5 L 546.0 278.8 L 557.8 291.8 L 565.0 306.7 L 566.3 322.6 L 561.2 337.8 L 550.8 351.3 L 537.6 363.1 L 523.8 373.1 L 509.5 381.3 L 494.5 387.6 L 478.7 392.1 L 462.1 394.8 L 444.7 395.9 L 426.9 396.2 L 409.1 396.1 L 391.4 395.8 L 373.7 396.4 L 359.1 403.8 L 354.0 419.5 L 361.3 434.2 L 376.9 440.0 L 394.5 439.9 L 411.8 440.7 L 427.5 447.3 L 438.2 459.8 L 440.9 477.0 L 436.2 494.0 L 425.9 505.9 L 411.6 512.6 L 394.7 515.6 L 376.6 516.4 L 358.5 516.4 L 340.8 516.1 L 323.2 515.8 L 305.7 515.7 L 287.9 516.0 L 270.1 516.2 L 252.1 516.2 L 234.1 515.7 L 217.2 517.3 L 203.7 526.3 L 196.6 541.6 L 198.9 557.1 L 210.2 568.6 L 226.3 574.3 L 243.8 574.5 L 261.7 573.6 L 279.5 573.7 L 297.2 574.3 L 315.0 574.4 L 332.9 573.5 L 350.4 573.9 L 366.8 578.6 L 379.6 588.7 L 386.0 603.9 L 384.9 621.0 L 376.4 634.9 L 362.3 643.7 L 345.6 647.4 L 328.0 647.3 L 310.1 646.7 L 292.4 646.7 L 274.6 647.0 L 256.8 647.3 L 239.0 647.4 L 221.3 646.8 L 203.5 646.1 L 185.9 647.8 L 170.3 654.2 L 161.3 666.6 L 162.0 683.9 L 170.9 698.2 L 185.9 703.6 L 203.7 704.0 L 221.6 703.9 L 239.5 703.9 L 257.3 704.1 L 275.0 704.2 L 292.7 704.2 L 310.4 704.1 L 328.2 703.8 L 346.1 703.3 L 363.7 704.2 L 380.2 708.7 L 393.2 718.0 L 400.1 733.0 L 399.4 750.3 L 391.0 764.6 L 376.9 773.6 L 360.0 776.5 L 342.2 775.7 L 324.5 776.0 L 306.8 776.8 L 288.7 775.2 L 271.4 776.0 L 257.0 785.3 L 250.0 799.7 L 254.5 814.0 L 267.9 824.1 L 285.1 827.4 L 303.3 826.0 L 321.0 825.2 L 338.4 825.8 L 355.9 826.6 L 373.9 826.5 L 392.4 825.4 L 410.2 825.5 L 426.2 829.0 L 439.2 838.4 L 447.1 853.3 L 446.9 869.6 L 437.6 883.6 L 422.6 892.0 L 405.4 893.4 L 387.7 892.5 L 370.2 893.4 L 352.1 893.1 L 334.0 892.3 L 318.8 898.4 L 310.4 912.2 L 314.0 927.4 L 328.3 936.5 L 345.7 937.2 L 363.5 937.0 L 381.2 936.9 L 399.0 937.0 L 416.8 937.1 L 434.6 937.0 L 452.3 936.8 L 469.3 938.8 L 484.7 945.4 L 497.0 956.7 L 504.7 971.4 L 507.0 988.0 L 503.6 1004.5 L 495.0 1019.1 L 482.5 1030.5 L 467.9 1040.7 L 458.8 1053.1 L 467.6 1063.5 L 484.7 1064.6 L 502.1 1062.5 L 518.8 1059.5 L 535.0 1055.8 L 551.0 1051.8 L 567.0 1047.6 L 583.0 1043.5 L 599.1 1039.6 L 615.3 1035.8 L 631.7 1032.5 L 648.3 1029.6 L 665.1 1027.3 L 682.2 1025.6 L 699.6 1024.6 L 717.2 1024.1 L 734.9 1023.9 L 752.6 1023.7 L 770.3 1023.3 L 787.7 1022.6 L 804.9 1021.1 L 821.7 1018.9 L 838.1 1015.8 L 854.2 1011.9 L 870.0 1007.3 L 885.6 1001.9 L 900.8 995.8 L 915.8 989.1 L 930.7 981.8 L 945.3 973.9 L 959.7 965.5 L 973.9 956.3 L 987.6 946.5 L 1000.8 935.8 L 1013.5 924.3 L 1025.6 911.9 L 1036.9 898.9 L 1047.5 885.4 L 1057.3 871.5 L 1066.1 857.2 L 1074.1 842.7 L 1081.2 827.9 L 1087.5 812.7 L 1093.0 797.3 L 1097.8 781.5 L 1101.7 765.5 L 1105.0 749.1 L 1107.6 732.3 L 1109.5 715.3 L 1110.7 698.1 L 1111.1 680.7 L 1110.9 663.4 L 1110.0 646.1 L 1108.4 629.0 L 1106.1 612.2 L 1103.0 595.7 L 1099.2 579.5 L 1094.7 563.7 L 1089.5 548.1 L 1083.5 532.8 L 1076.8 517.8 L 1069.4 503.1 L 1061.3 488.5 L 1052.5 474.2 L 1042.9 460.2 L 1032.5 446.7 L 1021.4 433.7 L 1009.4 421.6 L 996.5 410.4 L 982.9 400.0 L 969.0 390.0 L 955.0 380.1 L 941.2 370.1 L 927.9 359.6 L 915.1 348.3 L 902.9 335.9 L 891.1 322.7 L 879.3 309.4 L 867.0 296.8 L 854.2 285.1 L 840.9 274.2 L 827.3 264.1 L 813.3 254.7 L 799.1 246.1 L 784.7 238.1 L 769.9 230.9 L 754.9 224.3 L 739.7 218.3 L 724.1 213.0 L 708.3 208.3 L 692.2 204.3 L 675.8 200.8 L 659.1 198.0 L 642.2 195.7 L 625.1 193.9 L 607.9 192.8 L 590.5 192.1 L 573.0 192.0 Z" fill="url(#pinkGradient)"/>
    <path d="M 223.0 893.4 L 219.7 894.7 L 216.5 896.2 L 213.6 898.0 L 211.1 900.1 L 208.9 902.6 L 207.1 905.3 L 205.9 908.3 L 205.1 911.5 L 204.9 914.9 L 205.1 918.3 L 205.9 921.6 L 207.1 924.7 L 208.8 927.5 L 210.9 929.9 L 213.4 932.0 L 216.3 933.8 L 219.5 935.2 L 222.8 936.3 L 226.4 937.2 L 230.0 937.8 L 233.7 938.1 L 237.5 938.1 L 241.2 937.9 L 244.9 937.3 L 248.4 936.4 L 251.8 935.3 L 255.0 933.8 L 258.0 931.9 L 260.6 929.8 L 262.8 927.4 L 264.6 924.7 L 265.9 921.7 L 266.7 918.5 L 266.9 915.1 L 266.7 911.7 L 265.9 908.4 L 264.7 905.3 L 262.9 902.5 L 260.8 900.0 L 258.2 897.9 L 255.3 896.1 L 252.1 894.7 L 248.6 893.6 L 245.1 892.7 L 241.4 892.1 L 237.6 891.8 L 233.9 891.8 L 230.2 892.0 L 226.5 892.6 Z" fill="url(#pinkGradient)"/>
    <path d="M 279.7 395.9 L 276.6 397.2 L 273.7 398.8 L 271.1 400.8 L 268.8 403.1 L 266.9 405.6 L 265.2 408.4 L 264.0 411.3 L 263.1 414.2 L 262.6 417.3 L 262.5 420.3 L 262.9 423.2 L 263.8 426.0 L 265.2 428.7 L 267.0 431.2 L 269.3 433.4 L 271.9 435.4 L 274.8 437.1 L 278.0 438.5 L 281.3 439.6 L 284.7 440.4 L 288.2 440.9 L 291.7 441.0 L 295.1 440.7 L 298.5 440.2 L 301.8 439.4 L 305.0 438.3 L 308.0 436.8 L 310.8 435.1 L 313.3 433.1 L 315.4 430.8 L 317.2 428.2 L 318.5 425.3 L 319.4 422.2 L 319.8 419.0 L 319.8 415.7 L 319.3 412.5 L 318.3 409.4 L 316.9 406.7 L 315.1 404.2 L 312.8 402.1 L 310.3 400.3 L 307.4 398.7 L 304.3 397.4 L 300.9 396.4 L 297.4 395.5 L 293.8 394.9 L 290.2 394.7 L 286.6 394.7 L 283.1 395.1 Z" fill="url(#pinkGradient)"/>
    <path d="M 174.0 775.3 L 171.0 776.1 L 168.0 777.3 L 165.3 779.0 L 162.7 781.0 L 160.3 783.4 L 158.2 786.0 L 156.4 788.9 L 154.9 791.9 L 153.7 795.0 L 152.9 798.2 L 152.5 801.3 L 152.6 804.5 L 153.1 807.5 L 154.1 810.4 L 155.6 813.1 L 157.4 815.7 L 159.5 818.0 L 162.0 820.0 L 164.7 821.9 L 167.5 823.4 L 170.6 824.6 L 173.7 825.4 L 176.9 825.9 L 180.1 826.0 L 183.3 825.6 L 186.4 824.9 L 189.4 823.7 L 192.2 822.2 L 194.9 820.4 L 197.3 818.3 L 199.5 815.9 L 201.3 813.3 L 202.9 810.6 L 204.1 807.7 L 204.9 804.8 L 205.3 801.7 L 205.2 798.7 L 204.6 795.7 L 203.5 792.7 L 202.0 789.9 L 200.1 787.2 L 197.9 784.6 L 195.4 782.3 L 192.7 780.2 L 189.8 778.5 L 186.7 777.0 L 183.6 775.9 L 180.4 775.3 L 177.2 775.0 Z" fill="url(#pinkGradient)"/>
</g>
<rect id="face-visor" x="506" y="548" width="565" height="323" rx="98" fill="url(#faceGradient)"/>
<g id="terminal-face" filter="url(#glyphShadow)" stroke-linecap="round" stroke-linejoin="round">
<path id="prompt-eye" d="M 632 655 L 720 720 L 632 779" fill="none" stroke="#fff" stroke-width="52"/>
<rect id="cursor-eye" x="906" y="630" width="54" height="124" rx="27" fill="url(#pinkGradient)"/>
<path id="smile" d="M 737 783 C 780 807 828 806 865 783" fill="none" stroke="#fff" stroke-width="17"/>
<path id="fang" d="M 761 796 C 768 818 774 826 785 804 C 779 805 769 802 761 796 Z" fill="#fff"/>
</g>
</svg>